<mxfile host="app.diagrams.net" modified="2020-12-01T01:14:24.791Z" agent="5.0 (X11)" etag="TqvYg-iZltvU94eRAO3U" version="13.10.4" type="github">
  <diagram id="jHOiutRcJaCJQmjHb8Ix" name="Page-1">
    <mxGraphModel dx="1173" dy="820" grid="1" gridSize="10" guides="1" tooltips="1" connect="1" arrows="1" fold="1" page="1" pageScale="1" pageWidth="850" pageHeight="1100" math="0" shadow="0">
      <root>
        <mxCell id="0" />
        <mxCell id="1" parent="0" />
        <mxCell id="6owEM4tYbKaK4HcpuTV0-20" style="edgeStyle=orthogonalEdgeStyle;rounded=0;orthogonalLoop=1;jettySize=auto;html=1;exitX=0.5;exitY=1;exitDx=0;exitDy=0;" edge="1" parent="1" source="6owEM4tYbKaK4HcpuTV0-15">
          <mxGeometry relative="1" as="geometry">
            <mxPoint x="320" y="210" as="targetPoint" />
          </mxGeometry>
        </mxCell>
        <mxCell id="6owEM4tYbKaK4HcpuTV0-15" value="ASSIGNMENT?" style="rounded=1;whiteSpace=wrap;html=1;" vertex="1" parent="1">
          <mxGeometry x="260" y="80" width="120" height="60" as="geometry" />
        </mxCell>
        <mxCell id="6owEM4tYbKaK4HcpuTV0-16" value="" style="verticalLabelPosition=bottom;verticalAlign=top;html=1;shape=offPageConnector;rounded=0;size=0.5;fillColor=#d5e8d4;strokeColor=#82b366;" vertex="1" parent="1">
          <mxGeometry x="100" y="20" width="60" height="60" as="geometry" />
        </mxCell>
        <mxCell id="6owEM4tYbKaK4HcpuTV0-18" value="Start" style="text;html=1;strokeColor=#82b366;fillColor=#d5e8d4;align=center;verticalAlign=middle;whiteSpace=wrap;rounded=0;" vertex="1" parent="1">
          <mxGeometry x="110" y="30" width="40" height="20" as="geometry" />
        </mxCell>
        <mxCell id="6owEM4tYbKaK4HcpuTV0-19" value="" style="endArrow=classic;html=1;exitX=0.5;exitY=1;exitDx=0;exitDy=0;entryX=0.008;entryY=0.617;entryDx=0;entryDy=0;entryPerimeter=0;" edge="1" parent="1" source="6owEM4tYbKaK4HcpuTV0-16" target="6owEM4tYbKaK4HcpuTV0-15">
          <mxGeometry width="50" height="50" relative="1" as="geometry">
            <mxPoint x="320" y="270" as="sourcePoint" />
            <mxPoint x="250" y="120" as="targetPoint" />
            <Array as="points">
              <mxPoint x="130" y="120" />
            </Array>
          </mxGeometry>
        </mxCell>
        <mxCell id="6owEM4tYbKaK4HcpuTV0-32" style="edgeStyle=orthogonalEdgeStyle;rounded=0;orthogonalLoop=1;jettySize=auto;html=1;" edge="1" parent="1" source="6owEM4tYbKaK4HcpuTV0-21" target="6owEM4tYbKaK4HcpuTV0-30">
          <mxGeometry relative="1" as="geometry" />
        </mxCell>
        <mxCell id="6owEM4tYbKaK4HcpuTV0-35" style="edgeStyle=orthogonalEdgeStyle;rounded=0;orthogonalLoop=1;jettySize=auto;html=1;entryX=1;entryY=0.5;entryDx=0;entryDy=0;" edge="1" parent="1" source="6owEM4tYbKaK4HcpuTV0-21" target="6owEM4tYbKaK4HcpuTV0-33">
          <mxGeometry relative="1" as="geometry" />
        </mxCell>
        <mxCell id="6owEM4tYbKaK4HcpuTV0-21" value="" style="shape=process;whiteSpace=wrap;html=1;backgroundOutline=1;" vertex="1" parent="1">
          <mxGeometry x="260" y="210" width="120" height="60" as="geometry" />
        </mxCell>
        <mxCell id="6owEM4tYbKaK4HcpuTV0-22" value="GO TO ASSIGNMENT" style="text;html=1;strokeColor=none;fillColor=none;align=center;verticalAlign=middle;whiteSpace=wrap;rounded=0;" vertex="1" parent="1">
          <mxGeometry x="300" y="230" width="40" height="20" as="geometry" />
        </mxCell>
        <mxCell id="6owEM4tYbKaK4HcpuTV0-23" value="" style="endArrow=classic;html=1;exitX=1;exitY=0.5;exitDx=0;exitDy=0;fillColor=#f8cecc;strokeColor=#b85450;" edge="1" parent="1" source="6owEM4tYbKaK4HcpuTV0-15">
          <mxGeometry width="50" height="50" relative="1" as="geometry">
            <mxPoint x="320" y="270" as="sourcePoint" />
            <mxPoint x="480" y="110" as="targetPoint" />
          </mxGeometry>
        </mxCell>
        <mxCell id="6owEM4tYbKaK4HcpuTV0-24" value="" style="rounded=0;whiteSpace=wrap;html=1;" vertex="1" parent="1">
          <mxGeometry x="480" y="80" width="120" height="60" as="geometry" />
        </mxCell>
        <mxCell id="6owEM4tYbKaK4HcpuTV0-25" value="CHOOSE OTHER ASSIGNMENT" style="text;html=1;strokeColor=none;fillColor=none;align=center;verticalAlign=middle;whiteSpace=wrap;rounded=0;" vertex="1" parent="1">
          <mxGeometry x="520" y="100" width="40" height="20" as="geometry" />
        </mxCell>
        <mxCell id="6owEM4tYbKaK4HcpuTV0-26" value="" style="endArrow=classic;html=1;exitX=0.5;exitY=1;exitDx=0;exitDy=0;entryX=1;entryY=0.25;entryDx=0;entryDy=0;" edge="1" parent="1" source="6owEM4tYbKaK4HcpuTV0-24" target="6owEM4tYbKaK4HcpuTV0-21">
          <mxGeometry width="50" height="50" relative="1" as="geometry">
            <mxPoint x="320" y="270" as="sourcePoint" />
            <mxPoint x="370" y="220" as="targetPoint" />
            <Array as="points">
              <mxPoint x="540" y="220" />
            </Array>
          </mxGeometry>
        </mxCell>
        <mxCell id="6owEM4tYbKaK4HcpuTV0-27" value="" style="endArrow=classic;html=1;" edge="1" parent="1">
          <mxGeometry width="50" height="50" relative="1" as="geometry">
            <mxPoint x="320" y="270" as="sourcePoint" />
            <mxPoint x="320" y="340" as="targetPoint" />
          </mxGeometry>
        </mxCell>
        <mxCell id="6owEM4tYbKaK4HcpuTV0-28" value="CALCULATE NEW ROUTE" style="rounded=1;whiteSpace=wrap;html=1;" vertex="1" parent="1">
          <mxGeometry x="260" y="340" width="120" height="60" as="geometry" />
        </mxCell>
        <mxCell id="6owEM4tYbKaK4HcpuTV0-31" value="" style="edgeStyle=orthogonalEdgeStyle;rounded=0;orthogonalLoop=1;jettySize=auto;html=1;exitX=0;exitY=0.5;exitDx=0;exitDy=0;entryX=1;entryY=0.5;entryDx=0;entryDy=0;" edge="1" parent="1" source="6owEM4tYbKaK4HcpuTV0-30" target="6owEM4tYbKaK4HcpuTV0-21">
          <mxGeometry relative="1" as="geometry">
            <mxPoint x="260" y="240" as="targetPoint" />
          </mxGeometry>
        </mxCell>
        <mxCell id="6owEM4tYbKaK4HcpuTV0-63" style="edgeStyle=orthogonalEdgeStyle;rounded=0;orthogonalLoop=1;jettySize=auto;html=1;exitX=1;exitY=0.5;exitDx=0;exitDy=0;entryX=0.5;entryY=0;entryDx=0;entryDy=0;" edge="1" parent="1" source="6owEM4tYbKaK4HcpuTV0-30" target="6owEM4tYbKaK4HcpuTV0-46">
          <mxGeometry relative="1" as="geometry" />
        </mxCell>
        <mxCell id="6owEM4tYbKaK4HcpuTV0-85" style="edgeStyle=orthogonalEdgeStyle;rounded=0;orthogonalLoop=1;jettySize=auto;html=1;exitX=0;exitY=1;exitDx=0;exitDy=0;entryX=0.75;entryY=0;entryDx=0;entryDy=0;" edge="1" parent="1" source="6owEM4tYbKaK4HcpuTV0-30" target="6owEM4tYbKaK4HcpuTV0-28">
          <mxGeometry relative="1" as="geometry" />
        </mxCell>
        <mxCell id="6owEM4tYbKaK4HcpuTV0-30" value="AGRO?" style="rounded=1;whiteSpace=wrap;html=1;" vertex="1" parent="1">
          <mxGeometry x="580" y="210" width="120" height="60" as="geometry" />
        </mxCell>
        <mxCell id="6owEM4tYbKaK4HcpuTV0-34" style="edgeStyle=orthogonalEdgeStyle;rounded=0;orthogonalLoop=1;jettySize=auto;html=1;" edge="1" parent="1" source="6owEM4tYbKaK4HcpuTV0-33" target="6owEM4tYbKaK4HcpuTV0-21">
          <mxGeometry relative="1" as="geometry" />
        </mxCell>
        <mxCell id="6owEM4tYbKaK4HcpuTV0-33" value="INTERACTABLES?" style="rounded=1;whiteSpace=wrap;html=1;" vertex="1" parent="1">
          <mxGeometry x="70" y="210" width="120" height="60" as="geometry" />
        </mxCell>
        <mxCell id="6owEM4tYbKaK4HcpuTV0-37" style="edgeStyle=orthogonalEdgeStyle;rounded=0;orthogonalLoop=1;jettySize=auto;html=1;" edge="1" parent="1" source="6owEM4tYbKaK4HcpuTV0-36" target="6owEM4tYbKaK4HcpuTV0-33">
          <mxGeometry relative="1" as="geometry" />
        </mxCell>
        <mxCell id="6owEM4tYbKaK4HcpuTV0-77" style="edgeStyle=orthogonalEdgeStyle;rounded=0;orthogonalLoop=1;jettySize=auto;html=1;exitX=1;exitY=1;exitDx=0;exitDy=0;entryX=1;entryY=0;entryDx=0;entryDy=0;fillColor=#f8cecc;strokeColor=#b85450;" edge="1" parent="1" source="6owEM4tYbKaK4HcpuTV0-36" target="6owEM4tYbKaK4HcpuTV0-38">
          <mxGeometry relative="1" as="geometry" />
        </mxCell>
        <mxCell id="6owEM4tYbKaK4HcpuTV0-36" value="HAND FULL?" style="ellipse;whiteSpace=wrap;html=1;" vertex="1" parent="1">
          <mxGeometry x="70" y="310" width="120" height="80" as="geometry" />
        </mxCell>
        <mxCell id="6owEM4tYbKaK4HcpuTV0-39" style="edgeStyle=orthogonalEdgeStyle;rounded=0;orthogonalLoop=1;jettySize=auto;html=1;entryX=0.5;entryY=1;entryDx=0;entryDy=0;" edge="1" parent="1" source="6owEM4tYbKaK4HcpuTV0-38" target="6owEM4tYbKaK4HcpuTV0-36">
          <mxGeometry relative="1" as="geometry" />
        </mxCell>
        <mxCell id="6owEM4tYbKaK4HcpuTV0-38" value="PICKUP" style="ellipse;whiteSpace=wrap;html=1;" vertex="1" parent="1">
          <mxGeometry x="70" y="440" width="120" height="80" as="geometry" />
        </mxCell>
        <mxCell id="6owEM4tYbKaK4HcpuTV0-68" style="edgeStyle=orthogonalEdgeStyle;rounded=0;orthogonalLoop=1;jettySize=auto;html=1;exitX=0.5;exitY=1;exitDx=0;exitDy=0;" edge="1" parent="1" source="6owEM4tYbKaK4HcpuTV0-41">
          <mxGeometry relative="1" as="geometry">
            <mxPoint x="760" y="540" as="targetPoint" />
          </mxGeometry>
        </mxCell>
        <mxCell id="6owEM4tYbKaK4HcpuTV0-41" value="SHOOT" style="rounded=1;whiteSpace=wrap;html=1;" vertex="1" parent="1">
          <mxGeometry x="700" y="420" width="120" height="60" as="geometry" />
        </mxCell>
        <mxCell id="6owEM4tYbKaK4HcpuTV0-80" style="edgeStyle=orthogonalEdgeStyle;rounded=0;orthogonalLoop=1;jettySize=auto;html=1;entryX=0.5;entryY=0;entryDx=0;entryDy=0;" edge="1" parent="1" source="6owEM4tYbKaK4HcpuTV0-43" target="6owEM4tYbKaK4HcpuTV0-79">
          <mxGeometry relative="1" as="geometry" />
        </mxCell>
        <mxCell id="6owEM4tYbKaK4HcpuTV0-43" value="MELEE" style="rounded=1;whiteSpace=wrap;html=1;" vertex="1" parent="1">
          <mxGeometry x="970" y="700" width="120" height="50" as="geometry" />
        </mxCell>
        <mxCell id="6owEM4tYbKaK4HcpuTV0-56" style="edgeStyle=orthogonalEdgeStyle;rounded=0;orthogonalLoop=1;jettySize=auto;html=1;exitX=0.5;exitY=1;exitDx=0;exitDy=0;" edge="1" parent="1" source="6owEM4tYbKaK4HcpuTV0-46" target="6owEM4tYbKaK4HcpuTV0-41">
          <mxGeometry relative="1" as="geometry" />
        </mxCell>
        <mxCell id="6owEM4tYbKaK4HcpuTV0-62" style="edgeStyle=orthogonalEdgeStyle;rounded=0;orthogonalLoop=1;jettySize=auto;html=1;entryX=0.5;entryY=0;entryDx=0;entryDy=0;fillColor=#f8cecc;strokeColor=#b85450;" edge="1" parent="1" source="6owEM4tYbKaK4HcpuTV0-46" target="6owEM4tYbKaK4HcpuTV0-49">
          <mxGeometry relative="1" as="geometry">
            <Array as="points">
              <mxPoint x="1030" y="360" />
            </Array>
          </mxGeometry>
        </mxCell>
        <mxCell id="6owEM4tYbKaK4HcpuTV0-46" value="AMMO?" style="rounded=1;whiteSpace=wrap;html=1;" vertex="1" parent="1">
          <mxGeometry x="700" y="320" width="120" height="60" as="geometry" />
        </mxCell>
        <mxCell id="6owEM4tYbKaK4HcpuTV0-53" style="edgeStyle=orthogonalEdgeStyle;rounded=0;orthogonalLoop=1;jettySize=auto;html=1;fillColor=#f8cecc;strokeColor=#b85450;" edge="1" parent="1" source="6owEM4tYbKaK4HcpuTV0-49" target="6owEM4tYbKaK4HcpuTV0-51">
          <mxGeometry relative="1" as="geometry">
            <Array as="points">
              <mxPoint x="1140" y="410" />
              <mxPoint x="1140" y="510" />
            </Array>
          </mxGeometry>
        </mxCell>
        <mxCell id="6owEM4tYbKaK4HcpuTV0-57" style="edgeStyle=orthogonalEdgeStyle;rounded=0;orthogonalLoop=1;jettySize=auto;html=1;exitX=0.5;exitY=1;exitDx=0;exitDy=0;entryX=1;entryY=0.5;entryDx=0;entryDy=0;" edge="1" parent="1" source="6owEM4tYbKaK4HcpuTV0-49" target="6owEM4tYbKaK4HcpuTV0-41">
          <mxGeometry relative="1" as="geometry">
            <Array as="points">
              <mxPoint x="1030" y="410" />
              <mxPoint x="880" y="410" />
              <mxPoint x="880" y="450" />
            </Array>
          </mxGeometry>
        </mxCell>
        <mxCell id="6owEM4tYbKaK4HcpuTV0-49" value="RELOAD?" style="rounded=1;whiteSpace=wrap;html=1;" vertex="1" parent="1">
          <mxGeometry x="970" y="380" width="120" height="60" as="geometry" />
        </mxCell>
        <mxCell id="6owEM4tYbKaK4HcpuTV0-59" style="edgeStyle=orthogonalEdgeStyle;rounded=0;orthogonalLoop=1;jettySize=auto;html=1;exitX=0.5;exitY=1;exitDx=0;exitDy=0;" edge="1" parent="1" source="6owEM4tYbKaK4HcpuTV0-51">
          <mxGeometry relative="1" as="geometry">
            <mxPoint x="1030" y="600" as="targetPoint" />
          </mxGeometry>
        </mxCell>
        <mxCell id="6owEM4tYbKaK4HcpuTV0-51" value="Throw Weapon" style="rounded=1;whiteSpace=wrap;html=1;" vertex="1" parent="1">
          <mxGeometry x="970" y="480" width="120" height="60" as="geometry" />
        </mxCell>
        <mxCell id="6owEM4tYbKaK4HcpuTV0-61" style="edgeStyle=orthogonalEdgeStyle;rounded=0;orthogonalLoop=1;jettySize=auto;html=1;entryX=0.5;entryY=0;entryDx=0;entryDy=0;fillColor=#f8cecc;strokeColor=#b85450;" edge="1" parent="1" source="6owEM4tYbKaK4HcpuTV0-60" target="6owEM4tYbKaK4HcpuTV0-43">
          <mxGeometry relative="1" as="geometry" />
        </mxCell>
        <mxCell id="6owEM4tYbKaK4HcpuTV0-65" style="edgeStyle=orthogonalEdgeStyle;rounded=0;orthogonalLoop=1;jettySize=auto;html=1;exitX=1;exitY=0.5;exitDx=0;exitDy=0;entryX=1;entryY=0.5;entryDx=0;entryDy=0;" edge="1" parent="1" source="6owEM4tYbKaK4HcpuTV0-60" target="6owEM4tYbKaK4HcpuTV0-46">
          <mxGeometry relative="1" as="geometry">
            <mxPoint x="1200" y="320" as="targetPoint" />
            <Array as="points">
              <mxPoint x="1200" y="630" />
              <mxPoint x="1200" y="350" />
            </Array>
          </mxGeometry>
        </mxCell>
        <mxCell id="6owEM4tYbKaK4HcpuTV0-60" value="FIND WEAPON" style="rounded=1;whiteSpace=wrap;html=1;" vertex="1" parent="1">
          <mxGeometry x="970" y="600" width="120" height="60" as="geometry" />
        </mxCell>
        <mxCell id="6owEM4tYbKaK4HcpuTV0-72" style="edgeStyle=orthogonalEdgeStyle;rounded=0;orthogonalLoop=1;jettySize=auto;html=1;" edge="1" parent="1" source="6owEM4tYbKaK4HcpuTV0-71">
          <mxGeometry relative="1" as="geometry">
            <mxPoint x="900" y="110" as="targetPoint" />
          </mxGeometry>
        </mxCell>
        <mxCell id="6owEM4tYbKaK4HcpuTV0-71" value="IM DEAD?" style="shape=process;whiteSpace=wrap;html=1;backgroundOutline=1;" vertex="1" parent="1">
          <mxGeometry x="670" y="80" width="120" height="60" as="geometry" />
        </mxCell>
        <mxCell id="6owEM4tYbKaK4HcpuTV0-73" value="RETURN: NEVER ARRIVED" style="shape=hexagon;perimeter=hexagonPerimeter2;whiteSpace=wrap;html=1;fixedSize=1;" vertex="1" parent="1">
          <mxGeometry x="900" y="70" width="120" height="80" as="geometry" />
        </mxCell>
        <mxCell id="6owEM4tYbKaK4HcpuTV0-76" style="edgeStyle=orthogonalEdgeStyle;rounded=0;orthogonalLoop=1;jettySize=auto;html=1;exitX=0;exitY=0.5;exitDx=0;exitDy=0;fillColor=#f8cecc;strokeColor=#b85450;" edge="1" parent="1" source="6owEM4tYbKaK4HcpuTV0-74">
          <mxGeometry relative="1" as="geometry">
            <mxPoint x="380" y="350" as="targetPoint" />
            <Array as="points">
              <mxPoint x="700" y="580" />
              <mxPoint x="540" y="580" />
              <mxPoint x="540" y="350" />
            </Array>
          </mxGeometry>
        </mxCell>
        <mxCell id="6owEM4tYbKaK4HcpuTV0-78" style="edgeStyle=orthogonalEdgeStyle;rounded=0;orthogonalLoop=1;jettySize=auto;html=1;entryX=0;entryY=0.5;entryDx=0;entryDy=0;" edge="1" parent="1" source="6owEM4tYbKaK4HcpuTV0-74" target="6owEM4tYbKaK4HcpuTV0-46">
          <mxGeometry relative="1" as="geometry">
            <Array as="points">
              <mxPoint x="640" y="570" />
              <mxPoint x="640" y="350" />
            </Array>
          </mxGeometry>
        </mxCell>
        <mxCell id="6owEM4tYbKaK4HcpuTV0-74" value="CHECK IF (TARGET) ALIVE" style="rounded=1;whiteSpace=wrap;html=1;" vertex="1" parent="1">
          <mxGeometry x="700" y="540" width="120" height="60" as="geometry" />
        </mxCell>
        <mxCell id="6owEM4tYbKaK4HcpuTV0-83" style="edgeStyle=orthogonalEdgeStyle;rounded=0;orthogonalLoop=1;jettySize=auto;html=1;exitX=0;exitY=0.5;exitDx=0;exitDy=0;entryX=1;entryY=0.5;entryDx=0;entryDy=0;fillColor=#f8cecc;strokeColor=#b85450;" edge="1" parent="1" source="6owEM4tYbKaK4HcpuTV0-79" target="6owEM4tYbKaK4HcpuTV0-28">
          <mxGeometry relative="1" as="geometry">
            <Array as="points">
              <mxPoint x="520" y="840" />
              <mxPoint x="520" y="430" />
              <mxPoint x="400" y="430" />
              <mxPoint x="400" y="370" />
            </Array>
          </mxGeometry>
        </mxCell>
        <mxCell id="6owEM4tYbKaK4HcpuTV0-84" style="edgeStyle=orthogonalEdgeStyle;rounded=0;orthogonalLoop=1;jettySize=auto;html=1;exitX=1;exitY=0.5;exitDx=0;exitDy=0;entryX=1;entryY=0.75;entryDx=0;entryDy=0;" edge="1" parent="1" source="6owEM4tYbKaK4HcpuTV0-79" target="6owEM4tYbKaK4HcpuTV0-60">
          <mxGeometry relative="1" as="geometry" />
        </mxCell>
        <mxCell id="6owEM4tYbKaK4HcpuTV0-79" value="CHECK IF (TARGET) ALIVE" style="rounded=1;whiteSpace=wrap;html=1;" vertex="1" parent="1">
          <mxGeometry x="970" y="810" width="120" height="60" as="geometry" />
        </mxCell>
      </root>
    </mxGraphModel>
  </diagram>
</mxfile>
